<?xml version="1.0" encoding="UTF-8" standalone="no"?>
<!DOCTYPE svg PUBLIC "-//W3C//DTD SVG 1.1//EN"
 "http://www.w3.org/Graphics/SVG/1.1/DTD/svg11.dtd">
<!-- Generated by graphviz version 2.43.0 (0)
 -->
<!-- Title: Tree Pages: 1 -->
<svg width="905pt" height="433pt"
 viewBox="0.00 0.00 905.00 433.00" xmlns="http://www.w3.org/2000/svg" xmlns:xlink="http://www.w3.org/1999/xlink">
<g id="graph0" class="graph" transform="scale(1 1) rotate(0) translate(4 429)">
<title>Tree</title>
<polygon fill="white" stroke="transparent" points="-4,4 -4,-429 901,-429 901,4 -4,4"/>
<!-- 0 -->
<g id="node1" class="node">
<title>0</title>
<path fill="#f2c29f" stroke="black" d="M431,-425C431,-425 264,-425 264,-425 258,-425 252,-419 252,-413 252,-413 252,-354 252,-354 252,-348 258,-342 264,-342 264,-342 431,-342 431,-342 437,-342 443,-348 443,-354 443,-354 443,-413 443,-413 443,-419 437,-425 431,-425"/>
<text text-anchor="start" x="317" y="-409.8" font-family="Helvetica,sans-Serif" font-size="14.00">node #0</text>
<text text-anchor="start" x="260" y="-394.8" font-family="Helvetica,sans-Serif" font-size="14.00">petal_length_cm ≤ 3.468</text>
<text text-anchor="start" x="303.5" y="-379.8" font-family="Helvetica,sans-Serif" font-size="14.00">gini = 0.449</text>
<text text-anchor="start" x="290" y="-364.8" font-family="Helvetica,sans-Serif" font-size="14.00">samples = 1500</text>
<text text-anchor="start" x="281" y="-349.8" font-family="Helvetica,sans-Serif" font-size="14.00">value = [990, 510]</text>
</g>
<!-- 1 -->
<g id="node2" class="node">
<title>1</title>
<path fill="#e5813a" stroke="black" d="M327,-306C327,-306 160,-306 160,-306 154,-306 148,-300 148,-294 148,-294 148,-235 148,-235 148,-229 154,-223 160,-223 160,-223 327,-223 327,-223 333,-223 339,-229 339,-235 339,-235 339,-294 339,-294 339,-300 333,-306 327,-306"/>
<text text-anchor="start" x="213" y="-290.8" font-family="Helvetica,sans-Serif" font-size="14.00">node #1</text>
<text text-anchor="start" x="156" y="-275.8" font-family="Helvetica,sans-Serif" font-size="14.00">petal_length_cm ≤ 3.295</text>
<text text-anchor="start" x="199.5" y="-260.8" font-family="Helvetica,sans-Serif" font-size="14.00">gini = 0.007</text>
<text text-anchor="start" x="190.5" y="-245.8" font-family="Helvetica,sans-Serif" font-size="14.00">samples = 534</text>
<text text-anchor="start" x="186" y="-230.8" font-family="Helvetica,sans-Serif" font-size="14.00">value = [532, 2]</text>
</g>
<!-- 0&#45;&gt;1 -->
<g id="edge1" class="edge">
<title>0&#45;&gt;1</title>
<path fill="none" stroke="black" d="M311.42,-341.91C303.35,-332.83 294.72,-323.12 286.41,-313.77"/>
<polygon fill="black" stroke="black" points="288.78,-311.17 279.52,-306.02 283.55,-315.82 288.78,-311.17"/>
<text text-anchor="middle" x="278.05" y="-327.28" font-family="Helvetica,sans-Serif" font-size="14.00">True</text>
</g>
<!-- 6 -->
<g id="node7" class="node">
<title>6</title>
<path fill="#ecf5fc" stroke="black" d="M543,-306C543,-306 382,-306 382,-306 376,-306 370,-300 370,-294 370,-294 370,-235 370,-235 370,-229 376,-223 382,-223 382,-223 543,-223 543,-223 549,-223 555,-229 555,-235 555,-235 555,-294 555,-294 555,-300 549,-306 543,-306"/>
<text text-anchor="start" x="432" y="-290.8" font-family="Helvetica,sans-Serif" font-size="14.00">node #6</text>
<text text-anchor="start" x="378" y="-275.8" font-family="Helvetica,sans-Serif" font-size="14.00">petal_width_cm ≤ 1.719</text>
<text text-anchor="start" x="418.5" y="-260.8" font-family="Helvetica,sans-Serif" font-size="14.00">gini = 0.499</text>
<text text-anchor="start" x="409.5" y="-245.8" font-family="Helvetica,sans-Serif" font-size="14.00">samples = 966</text>
<text text-anchor="start" x="396" y="-230.8" font-family="Helvetica,sans-Serif" font-size="14.00">value = [458, 508]</text>
</g>
<!-- 0&#45;&gt;6 -->
<g id="edge6" class="edge">
<title>0&#45;&gt;6</title>
<path fill="none" stroke="black" d="M387.4,-341.91C396.5,-332.65 406.25,-322.73 415.61,-313.21"/>
<polygon fill="black" stroke="black" points="418.16,-315.61 422.67,-306.02 413.17,-310.7 418.16,-315.61"/>
<text text-anchor="middle" x="422.89" y="-327.32" font-family="Helvetica,sans-Serif" font-size="14.00">False</text>
</g>
<!-- 2 -->
<g id="node3" class="node">
<title>2</title>
<path fill="#e58139" stroke="black" d="M119,-179.5C119,-179.5 12,-179.5 12,-179.5 6,-179.5 0,-173.5 0,-167.5 0,-167.5 0,-123.5 0,-123.5 0,-117.5 6,-111.5 12,-111.5 12,-111.5 119,-111.5 119,-111.5 125,-111.5 131,-117.5 131,-123.5 131,-123.5 131,-167.5 131,-167.5 131,-173.5 125,-179.5 119,-179.5"/>
<text text-anchor="start" x="35" y="-164.3" font-family="Helvetica,sans-Serif" font-size="14.00">node #2</text>
<text text-anchor="start" x="30.5" y="-149.3" font-family="Helvetica,sans-Serif" font-size="14.00">gini = 0.0</text>
<text text-anchor="start" x="12.5" y="-134.3" font-family="Helvetica,sans-Serif" font-size="14.00">samples = 516</text>
<text text-anchor="start" x="8" y="-119.3" font-family="Helvetica,sans-Serif" font-size="14.00">value = [516, 0]</text>
</g>
<!-- 1&#45;&gt;2 -->
<g id="edge2" class="edge">
<title>1&#45;&gt;2</title>
<path fill="none" stroke="black" d="M181.74,-222.91C163.28,-210.77 143.08,-197.49 124.78,-185.46"/>
<polygon fill="black" stroke="black" points="126.24,-182.23 115.96,-179.67 122.39,-188.08 126.24,-182.23"/>
</g>
<!-- 3 -->
<g id="node4" class="node">
<title>3</title>
<path fill="#e89152" stroke="black" d="M325.5,-187C325.5,-187 161.5,-187 161.5,-187 155.5,-187 149.5,-181 149.5,-175 149.5,-175 149.5,-116 149.5,-116 149.5,-110 155.5,-104 161.5,-104 161.5,-104 325.5,-104 325.5,-104 331.5,-104 337.5,-110 337.5,-116 337.5,-116 337.5,-175 337.5,-175 337.5,-181 331.5,-187 325.5,-187"/>
<text text-anchor="start" x="213" y="-171.8" font-family="Helvetica,sans-Serif" font-size="14.00">node #3</text>
<text text-anchor="start" x="157.5" y="-156.8" font-family="Helvetica,sans-Serif" font-size="14.00">sepal_width_cm ≤ 2.606</text>
<text text-anchor="start" x="199.5" y="-141.8" font-family="Helvetica,sans-Serif" font-size="14.00">gini = 0.198</text>
<text text-anchor="start" x="195" y="-126.8" font-family="Helvetica,sans-Serif" font-size="14.00">samples = 18</text>
<text text-anchor="start" x="190.5" y="-111.8" font-family="Helvetica,sans-Serif" font-size="14.00">value = [16, 2]</text>
</g>
<!-- 1&#45;&gt;3 -->
<g id="edge3" class="edge">
<title>1&#45;&gt;3</title>
<path fill="none" stroke="black" d="M243.5,-222.91C243.5,-214.65 243.5,-205.86 243.5,-197.3"/>
<polygon fill="black" stroke="black" points="247,-197.02 243.5,-187.02 240,-197.02 247,-197.02"/>
</g>
<!-- 4 -->
<g id="node5" class="node">
<title>4</title>
<path fill="#e58139" stroke="black" d="M156.5,-68C156.5,-68 58.5,-68 58.5,-68 52.5,-68 46.5,-62 46.5,-56 46.5,-56 46.5,-12 46.5,-12 46.5,-6 52.5,0 58.5,0 58.5,0 156.5,0 156.5,0 162.5,0 168.5,-6 168.5,-12 168.5,-12 168.5,-56 168.5,-56 168.5,-62 162.5,-68 156.5,-68"/>
<text text-anchor="start" x="77" y="-52.8" font-family="Helvetica,sans-Serif" font-size="14.00">node #4</text>
<text text-anchor="start" x="72.5" y="-37.8" font-family="Helvetica,sans-Serif" font-size="14.00">gini = 0.0</text>
<text text-anchor="start" x="59" y="-22.8" font-family="Helvetica,sans-Serif" font-size="14.00">samples = 16</text>
<text text-anchor="start" x="54.5" y="-7.8" font-family="Helvetica,sans-Serif" font-size="14.00">value = [16, 0]</text>
</g>
<!-- 3&#45;&gt;4 -->
<g id="edge4" class="edge">
<title>3&#45;&gt;4</title>
<path fill="none" stroke="black" d="M192.86,-103.73C181.08,-94.24 168.55,-84.16 156.83,-74.72"/>
<polygon fill="black" stroke="black" points="158.84,-71.84 148.86,-68.3 154.45,-77.3 158.84,-71.84"/>
</g>
<!-- 5 -->
<g id="node6" class="node">
<title>5</title>
<path fill="#399de5" stroke="black" d="M288,-68C288,-68 199,-68 199,-68 193,-68 187,-62 187,-56 187,-56 187,-12 187,-12 187,-6 193,0 199,0 199,0 288,0 288,0 294,0 300,-6 300,-12 300,-12 300,-56 300,-56 300,-62 294,-68 288,-68"/>
<text text-anchor="start" x="213" y="-52.8" font-family="Helvetica,sans-Serif" font-size="14.00">node #5</text>
<text text-anchor="start" x="208.5" y="-37.8" font-family="Helvetica,sans-Serif" font-size="14.00">gini = 0.0</text>
<text text-anchor="start" x="199.5" y="-22.8" font-family="Helvetica,sans-Serif" font-size="14.00">samples = 2</text>
<text text-anchor="start" x="195" y="-7.8" font-family="Helvetica,sans-Serif" font-size="14.00">value = [0, 2]</text>
</g>
<!-- 3&#45;&gt;5 -->
<g id="edge5" class="edge">
<title>3&#45;&gt;5</title>
<path fill="none" stroke="black" d="M243.5,-103.73C243.5,-95.52 243.5,-86.86 243.5,-78.56"/>
<polygon fill="black" stroke="black" points="247,-78.3 243.5,-68.3 240,-78.3 247,-78.3"/>
</g>
<!-- 7 -->
<g id="node8" class="node">
<title>7</title>
<path fill="#49a5e7" stroke="black" d="M546,-187C546,-187 379,-187 379,-187 373,-187 367,-181 367,-175 367,-175 367,-116 367,-116 367,-110 373,-104 379,-104 379,-104 546,-104 546,-104 552,-104 558,-110 558,-116 558,-116 558,-175 558,-175 558,-181 552,-187 546,-187"/>
<text text-anchor="start" x="432" y="-171.8" font-family="Helvetica,sans-Serif" font-size="14.00">node #7</text>
<text text-anchor="start" x="375" y="-156.8" font-family="Helvetica,sans-Serif" font-size="14.00">petal_length_cm ≤ 5.494</text>
<text text-anchor="start" x="418.5" y="-141.8" font-family="Helvetica,sans-Serif" font-size="14.00">gini = 0.136</text>
<text text-anchor="start" x="409.5" y="-126.8" font-family="Helvetica,sans-Serif" font-size="14.00">samples = 518</text>
<text text-anchor="start" x="400.5" y="-111.8" font-family="Helvetica,sans-Serif" font-size="14.00">value = [38, 480]</text>
</g>
<!-- 6&#45;&gt;7 -->
<g id="edge7" class="edge">
<title>6&#45;&gt;7</title>
<path fill="none" stroke="black" d="M462.5,-222.91C462.5,-214.65 462.5,-205.86 462.5,-197.3"/>
<polygon fill="black" stroke="black" points="466,-197.02 462.5,-187.02 459,-197.02 466,-197.02"/>
</g>
<!-- 10 -->
<g id="node11" class="node">
<title>10</title>
<path fill="#e78946" stroke="black" d="M766,-187C766,-187 599,-187 599,-187 593,-187 587,-181 587,-175 587,-175 587,-116 587,-116 587,-110 593,-104 599,-104 599,-104 766,-104 766,-104 772,-104 778,-110 778,-116 778,-116 778,-175 778,-175 778,-181 772,-187 766,-187"/>
<text text-anchor="start" x="647.5" y="-171.8" font-family="Helvetica,sans-Serif" font-size="14.00">node #10</text>
<text text-anchor="start" x="595" y="-156.8" font-family="Helvetica,sans-Serif" font-size="14.00">petal_length_cm ≤ 5.028</text>
<text text-anchor="start" x="638.5" y="-141.8" font-family="Helvetica,sans-Serif" font-size="14.00">gini = 0.117</text>
<text text-anchor="start" x="629.5" y="-126.8" font-family="Helvetica,sans-Serif" font-size="14.00">samples = 448</text>
<text text-anchor="start" x="620.5" y="-111.8" font-family="Helvetica,sans-Serif" font-size="14.00">value = [420, 28]</text>
</g>
<!-- 6&#45;&gt;10 -->
<g id="edge10" class="edge">
<title>6&#45;&gt;10</title>
<path fill="none" stroke="black" d="M538.83,-222.91C557.68,-212.88 578,-202.07 597.25,-191.84"/>
<polygon fill="black" stroke="black" points="599.12,-194.81 606.31,-187.02 595.83,-188.63 599.12,-194.81"/>
</g>
<!-- 8 -->
<g id="node9" class="node">
<title>8</title>
<path fill="#40a0e6" stroke="black" d="M446.5,-68C446.5,-68 330.5,-68 330.5,-68 324.5,-68 318.5,-62 318.5,-56 318.5,-56 318.5,-12 318.5,-12 318.5,-6 324.5,0 330.5,0 330.5,0 446.5,0 446.5,0 452.5,0 458.5,-6 458.5,-12 458.5,-12 458.5,-56 458.5,-56 458.5,-62 452.5,-68 446.5,-68"/>
<text text-anchor="start" x="358" y="-52.8" font-family="Helvetica,sans-Serif" font-size="14.00">node #8</text>
<text text-anchor="start" x="344.5" y="-37.8" font-family="Helvetica,sans-Serif" font-size="14.00">gini = 0.063</text>
<text text-anchor="start" x="335.5" y="-22.8" font-family="Helvetica,sans-Serif" font-size="14.00">samples = 494</text>
<text text-anchor="start" x="326.5" y="-7.8" font-family="Helvetica,sans-Serif" font-size="14.00">value = [16, 478]</text>
</g>
<!-- 7&#45;&gt;8 -->
<g id="edge8" class="edge">
<title>7&#45;&gt;8</title>
<path fill="none" stroke="black" d="M434.95,-103.73C428.97,-94.88 422.63,-85.51 416.63,-76.63"/>
<polygon fill="black" stroke="black" points="419.5,-74.63 411,-68.3 413.7,-78.54 419.5,-74.63"/>
</g>
<!-- 9 -->
<g id="node10" class="node">
<title>9</title>
<path fill="#e78c4b" stroke="black" d="M586.5,-68C586.5,-68 488.5,-68 488.5,-68 482.5,-68 476.5,-62 476.5,-56 476.5,-56 476.5,-12 476.5,-12 476.5,-6 482.5,0 488.5,0 488.5,0 586.5,0 586.5,0 592.5,0 598.5,-6 598.5,-12 598.5,-12 598.5,-56 598.5,-56 598.5,-62 592.5,-68 586.5,-68"/>
<text text-anchor="start" x="507" y="-52.8" font-family="Helvetica,sans-Serif" font-size="14.00">node #9</text>
<text text-anchor="start" x="493.5" y="-37.8" font-family="Helvetica,sans-Serif" font-size="14.00">gini = 0.153</text>
<text text-anchor="start" x="489" y="-22.8" font-family="Helvetica,sans-Serif" font-size="14.00">samples = 24</text>
<text text-anchor="start" x="484.5" y="-7.8" font-family="Helvetica,sans-Serif" font-size="14.00">value = [22, 2]</text>
</g>
<!-- 7&#45;&gt;9 -->
<g id="edge9" class="edge">
<title>7&#45;&gt;9</title>
<path fill="none" stroke="black" d="M490.43,-103.73C496.49,-94.88 502.9,-85.51 508.99,-76.63"/>
<polygon fill="black" stroke="black" points="511.93,-78.53 514.69,-68.3 506.15,-74.57 511.93,-78.53"/>
</g>
<!-- 11 -->
<g id="node12" class="node">
<title>11</title>
<path fill="#f4c8a8" stroke="black" d="M736,-68C736,-68 629,-68 629,-68 623,-68 617,-62 617,-56 617,-56 617,-12 617,-12 617,-6 623,0 629,0 629,0 736,0 736,0 742,0 748,-6 748,-12 748,-12 748,-56 748,-56 748,-62 742,-68 736,-68"/>
<text text-anchor="start" x="647.5" y="-52.8" font-family="Helvetica,sans-Serif" font-size="14.00">node #11</text>
<text text-anchor="start" x="643" y="-37.8" font-family="Helvetica,sans-Serif" font-size="14.00">gini = 0.46</text>
<text text-anchor="start" x="634" y="-22.8" font-family="Helvetica,sans-Serif" font-size="14.00">samples = 78</text>
<text text-anchor="start" x="625" y="-7.8" font-family="Helvetica,sans-Serif" font-size="14.00">value = [50, 28]</text>
</g>
<!-- 10&#45;&gt;11 -->
<g id="edge11" class="edge">
<title>10&#45;&gt;11</title>
<path fill="none" stroke="black" d="M682.5,-103.73C682.5,-95.52 682.5,-86.86 682.5,-78.56"/>
<polygon fill="black" stroke="black" points="686,-78.3 682.5,-68.3 679,-78.3 686,-78.3"/>
</g>
<!-- 12 -->
<g id="node13" class="node">
<title>12</title>
<path fill="#e58139" stroke="black" d="M885,-68C885,-68 778,-68 778,-68 772,-68 766,-62 766,-56 766,-56 766,-12 766,-12 766,-6 772,0 778,0 778,0 885,0 885,0 891,0 897,-6 897,-12 897,-12 897,-56 897,-56 897,-62 891,-68 885,-68"/>
<text text-anchor="start" x="796.5" y="-52.8" font-family="Helvetica,sans-Serif" font-size="14.00">node #12</text>
<text text-anchor="start" x="796.5" y="-37.8" font-family="Helvetica,sans-Serif" font-size="14.00">gini = 0.0</text>
<text text-anchor="start" x="778.5" y="-22.8" font-family="Helvetica,sans-Serif" font-size="14.00">samples = 370</text>
<text text-anchor="start" x="774" y="-7.8" font-family="Helvetica,sans-Serif" font-size="14.00">value = [370, 0]</text>
</g>
<!-- 10&#45;&gt;12 -->
<g id="edge12" class="edge">
<title>10&#45;&gt;12</title>
<path fill="none" stroke="black" d="M737.98,-103.73C751.01,-94.15 764.88,-83.96 777.83,-74.44"/>
<polygon fill="black" stroke="black" points="780.2,-77.04 786.19,-68.3 776.06,-71.4 780.2,-77.04"/>
</g>
</g>
</svg>
