<?xml version="1.0" encoding="UTF-8" standalone="no"?>
<!DOCTYPE svg PUBLIC "-//W3C//DTD SVG 1.1//EN"
 "http://www.w3.org/Graphics/SVG/1.1/DTD/svg11.dtd">
<!-- Generated by graphviz version 2.43.0 (0)
 -->
<!-- Title: Tree Pages: 1 -->
<svg width="1158pt" height="433pt"
 viewBox="0.00 0.00 1157.50 433.00" xmlns="http://www.w3.org/2000/svg" xmlns:xlink="http://www.w3.org/1999/xlink">
<g id="graph0" class="graph" transform="scale(1 1) rotate(0) translate(4 429)">
<title>Tree</title>
<polygon fill="white" stroke="transparent" points="-4,4 -4,-429 1153.5,-429 1153.5,4 -4,4"/>
<!-- 0 -->
<g id="node1" class="node">
<title>0</title>
<path fill="#b9dcf6" stroke="black" d="M620,-425C620,-425 453,-425 453,-425 447,-425 441,-419 441,-413 441,-413 441,-354 441,-354 441,-348 447,-342 453,-342 453,-342 620,-342 620,-342 626,-342 632,-348 632,-354 632,-354 632,-413 632,-413 632,-419 626,-425 620,-425"/>
<text text-anchor="start" x="506" y="-409.8" font-family="Helvetica,sans-Serif" font-size="14.00">node #0</text>
<text text-anchor="start" x="449" y="-394.8" font-family="Helvetica,sans-Serif" font-size="14.00">petal_length_cm ≤ 2.321</text>
<text text-anchor="start" x="492.5" y="-379.8" font-family="Helvetica,sans-Serif" font-size="14.00">gini = 0.477</text>
<text text-anchor="start" x="479" y="-364.8" font-family="Helvetica,sans-Serif" font-size="14.00">samples = 1500</text>
<text text-anchor="start" x="470" y="-349.8" font-family="Helvetica,sans-Serif" font-size="14.00">value = [588, 912]</text>
</g>
<!-- 1 -->
<g id="node2" class="node">
<title>1</title>
<path fill="#e78c4a" stroke="black" d="M507,-306C507,-306 346,-306 346,-306 340,-306 334,-300 334,-294 334,-294 334,-235 334,-235 334,-229 340,-223 346,-223 346,-223 507,-223 507,-223 513,-223 519,-229 519,-235 519,-235 519,-294 519,-294 519,-300 513,-306 507,-306"/>
<text text-anchor="start" x="396" y="-290.8" font-family="Helvetica,sans-Serif" font-size="14.00">node #1</text>
<text text-anchor="start" x="342" y="-275.8" font-family="Helvetica,sans-Serif" font-size="14.00">sepal_length_cm ≤ 5.97</text>
<text text-anchor="start" x="382.5" y="-260.8" font-family="Helvetica,sans-Serif" font-size="14.00">gini = 0.142</text>
<text text-anchor="start" x="373.5" y="-245.8" font-family="Helvetica,sans-Serif" font-size="14.00">samples = 428</text>
<text text-anchor="start" x="364.5" y="-230.8" font-family="Helvetica,sans-Serif" font-size="14.00">value = [395, 33]</text>
</g>
<!-- 0&#45;&gt;1 -->
<g id="edge1" class="edge">
<title>0&#45;&gt;1</title>
<path fill="none" stroke="black" d="M498.34,-341.91C489.72,-332.74 480.49,-322.93 471.62,-313.49"/>
<polygon fill="black" stroke="black" points="474,-310.91 464.6,-306.02 468.9,-315.7 474,-310.91"/>
<text text-anchor="middle" x="463.83" y="-327.31" font-family="Helvetica,sans-Serif" font-size="14.00">True</text>
</g>
<!-- 8 -->
<g id="node9" class="node">
<title>8</title>
<path fill="#64b3eb" stroke="black" d="M767.5,-306C767.5,-306 597.5,-306 597.5,-306 591.5,-306 585.5,-300 585.5,-294 585.5,-294 585.5,-235 585.5,-235 585.5,-229 591.5,-223 597.5,-223 597.5,-223 767.5,-223 767.5,-223 773.5,-223 779.5,-229 779.5,-235 779.5,-235 779.5,-294 779.5,-294 779.5,-300 773.5,-306 767.5,-306"/>
<text text-anchor="start" x="652" y="-290.8" font-family="Helvetica,sans-Serif" font-size="14.00">node #8</text>
<text text-anchor="start" x="593.5" y="-275.8" font-family="Helvetica,sans-Serif" font-size="14.00">sepal_length_cm ≤ 4.539</text>
<text text-anchor="start" x="638.5" y="-260.8" font-family="Helvetica,sans-Serif" font-size="14.00">gini = 0.295</text>
<text text-anchor="start" x="625" y="-245.8" font-family="Helvetica,sans-Serif" font-size="14.00">samples = 1072</text>
<text text-anchor="start" x="616" y="-230.8" font-family="Helvetica,sans-Serif" font-size="14.00">value = [193, 879]</text>
</g>
<!-- 0&#45;&gt;8 -->
<g id="edge8" class="edge">
<title>0&#45;&gt;8</title>
<path fill="none" stroke="black" d="M587.15,-341.91C599.04,-332.38 611.81,-322.15 624.01,-312.37"/>
<polygon fill="black" stroke="black" points="626.32,-315.01 631.94,-306.02 621.94,-309.54 626.32,-315.01"/>
<text text-anchor="middle" x="629.2" y="-327.17" font-family="Helvetica,sans-Serif" font-size="14.00">False</text>
</g>
<!-- 2 -->
<g id="node3" class="node">
<title>2</title>
<path fill="#e6843e" stroke="black" d="M294,-187C294,-187 127,-187 127,-187 121,-187 115,-181 115,-175 115,-175 115,-116 115,-116 115,-110 121,-104 127,-104 127,-104 294,-104 294,-104 300,-104 306,-110 306,-116 306,-116 306,-175 306,-175 306,-181 300,-187 294,-187"/>
<text text-anchor="start" x="180" y="-171.8" font-family="Helvetica,sans-Serif" font-size="14.00">node #2</text>
<text text-anchor="start" x="123" y="-156.8" font-family="Helvetica,sans-Serif" font-size="14.00">petal_length_cm ≤ 2.105</text>
<text text-anchor="start" x="166.5" y="-141.8" font-family="Helvetica,sans-Serif" font-size="14.00">gini = 0.044</text>
<text text-anchor="start" x="157.5" y="-126.8" font-family="Helvetica,sans-Serif" font-size="14.00">samples = 359</text>
<text text-anchor="start" x="153" y="-111.8" font-family="Helvetica,sans-Serif" font-size="14.00">value = [351, 8]</text>
</g>
<!-- 1&#45;&gt;2 -->
<g id="edge2" class="edge">
<title>1&#45;&gt;2</title>
<path fill="none" stroke="black" d="M351.56,-222.91C333.05,-212.88 313.1,-202.07 294.2,-191.84"/>
<polygon fill="black" stroke="black" points="295.77,-188.71 285.31,-187.02 292.43,-194.86 295.77,-188.71"/>
</g>
<!-- 5 -->
<g id="node6" class="node">
<title>5</title>
<path fill="#f4c9aa" stroke="black" d="M510,-187C510,-187 343,-187 343,-187 337,-187 331,-181 331,-175 331,-175 331,-116 331,-116 331,-110 337,-104 343,-104 343,-104 510,-104 510,-104 516,-104 522,-110 522,-116 522,-116 522,-175 522,-175 522,-181 516,-187 510,-187"/>
<text text-anchor="start" x="396" y="-171.8" font-family="Helvetica,sans-Serif" font-size="14.00">node #5</text>
<text text-anchor="start" x="339" y="-156.8" font-family="Helvetica,sans-Serif" font-size="14.00">petal_length_cm ≤ 1.461</text>
<text text-anchor="start" x="382.5" y="-141.8" font-family="Helvetica,sans-Serif" font-size="14.00">gini = 0.462</text>
<text text-anchor="start" x="378" y="-126.8" font-family="Helvetica,sans-Serif" font-size="14.00">samples = 69</text>
<text text-anchor="start" x="369" y="-111.8" font-family="Helvetica,sans-Serif" font-size="14.00">value = [44, 25]</text>
</g>
<!-- 1&#45;&gt;5 -->
<g id="edge5" class="edge">
<title>1&#45;&gt;5</title>
<path fill="none" stroke="black" d="M426.5,-222.91C426.5,-214.65 426.5,-205.86 426.5,-197.3"/>
<polygon fill="black" stroke="black" points="430,-197.02 426.5,-187.02 423,-197.02 430,-197.02"/>
</g>
<!-- 3 -->
<g id="node4" class="node">
<title>3</title>
<path fill="#e5813a" stroke="black" d="M119,-68C119,-68 12,-68 12,-68 6,-68 0,-62 0,-56 0,-56 0,-12 0,-12 0,-6 6,0 12,0 12,0 119,0 119,0 125,0 131,-6 131,-12 131,-12 131,-56 131,-56 131,-62 125,-68 119,-68"/>
<text text-anchor="start" x="35" y="-52.8" font-family="Helvetica,sans-Serif" font-size="14.00">node #3</text>
<text text-anchor="start" x="21.5" y="-37.8" font-family="Helvetica,sans-Serif" font-size="14.00">gini = 0.006</text>
<text text-anchor="start" x="12.5" y="-22.8" font-family="Helvetica,sans-Serif" font-size="14.00">samples = 326</text>
<text text-anchor="start" x="8" y="-7.8" font-family="Helvetica,sans-Serif" font-size="14.00">value = [325, 1]</text>
</g>
<!-- 2&#45;&gt;3 -->
<g id="edge3" class="edge">
<title>2&#45;&gt;3</title>
<path fill="none" stroke="black" d="M156.51,-103.73C143.83,-94.15 130.33,-83.96 117.73,-74.44"/>
<polygon fill="black" stroke="black" points="119.68,-71.53 109.6,-68.3 115.47,-77.12 119.68,-71.53"/>
</g>
<!-- 4 -->
<g id="node5" class="node">
<title>4</title>
<path fill="#eca36e" stroke="black" d="M259.5,-68C259.5,-68 161.5,-68 161.5,-68 155.5,-68 149.5,-62 149.5,-56 149.5,-56 149.5,-12 149.5,-12 149.5,-6 155.5,0 161.5,0 161.5,0 259.5,0 259.5,0 265.5,0 271.5,-6 271.5,-12 271.5,-12 271.5,-56 271.5,-56 271.5,-62 265.5,-68 259.5,-68"/>
<text text-anchor="start" x="180" y="-52.8" font-family="Helvetica,sans-Serif" font-size="14.00">node #4</text>
<text text-anchor="start" x="166.5" y="-37.8" font-family="Helvetica,sans-Serif" font-size="14.00">gini = 0.334</text>
<text text-anchor="start" x="162" y="-22.8" font-family="Helvetica,sans-Serif" font-size="14.00">samples = 33</text>
<text text-anchor="start" x="157.5" y="-7.8" font-family="Helvetica,sans-Serif" font-size="14.00">value = [26, 7]</text>
</g>
<!-- 2&#45;&gt;4 -->
<g id="edge4" class="edge">
<title>2&#45;&gt;4</title>
<path fill="none" stroke="black" d="M210.5,-103.73C210.5,-95.52 210.5,-86.86 210.5,-78.56"/>
<polygon fill="black" stroke="black" points="214,-78.3 210.5,-68.3 207,-78.3 214,-78.3"/>
</g>
<!-- 6 -->
<g id="node7" class="node">
<title>6</title>
<path fill="#e78945" stroke="black" d="M399.5,-68C399.5,-68 301.5,-68 301.5,-68 295.5,-68 289.5,-62 289.5,-56 289.5,-56 289.5,-12 289.5,-12 289.5,-6 295.5,0 301.5,0 301.5,0 399.5,0 399.5,0 405.5,0 411.5,-6 411.5,-12 411.5,-12 411.5,-56 411.5,-56 411.5,-62 405.5,-68 399.5,-68"/>
<text text-anchor="start" x="320" y="-52.8" font-family="Helvetica,sans-Serif" font-size="14.00">node #6</text>
<text text-anchor="start" x="306.5" y="-37.8" font-family="Helvetica,sans-Serif" font-size="14.00">gini = 0.111</text>
<text text-anchor="start" x="302" y="-22.8" font-family="Helvetica,sans-Serif" font-size="14.00">samples = 34</text>
<text text-anchor="start" x="297.5" y="-7.8" font-family="Helvetica,sans-Serif" font-size="14.00">value = [32, 2]</text>
</g>
<!-- 5&#45;&gt;6 -->
<g id="edge6" class="edge">
<title>5&#45;&gt;6</title>
<path fill="none" stroke="black" d="M398.2,-103.73C392.06,-94.88 385.56,-85.51 379.39,-76.63"/>
<polygon fill="black" stroke="black" points="382.19,-74.52 373.61,-68.3 376.44,-78.51 382.19,-74.52"/>
</g>
<!-- 7 -->
<g id="node8" class="node">
<title>7</title>
<path fill="#a0d0f3" stroke="black" d="M549,-68C549,-68 442,-68 442,-68 436,-68 430,-62 430,-56 430,-56 430,-12 430,-12 430,-6 436,0 442,0 442,0 549,0 549,0 555,0 561,-6 561,-12 561,-12 561,-56 561,-56 561,-62 555,-68 549,-68"/>
<text text-anchor="start" x="465" y="-52.8" font-family="Helvetica,sans-Serif" font-size="14.00">node #7</text>
<text text-anchor="start" x="451.5" y="-37.8" font-family="Helvetica,sans-Serif" font-size="14.00">gini = 0.451</text>
<text text-anchor="start" x="447" y="-22.8" font-family="Helvetica,sans-Serif" font-size="14.00">samples = 35</text>
<text text-anchor="start" x="438" y="-7.8" font-family="Helvetica,sans-Serif" font-size="14.00">value = [12, 23]</text>
</g>
<!-- 5&#45;&gt;7 -->
<g id="edge7" class="edge">
<title>5&#45;&gt;7</title>
<path fill="none" stroke="black" d="M452.19,-103.73C457.71,-94.97 463.55,-85.7 469.09,-76.91"/>
<polygon fill="black" stroke="black" points="472.15,-78.63 474.52,-68.3 466.22,-74.89 472.15,-78.63"/>
</g>
<!-- 9 -->
<g id="node10" class="node">
<title>9</title>
<path fill="#ea9a60" stroke="black" d="M763,-187C763,-187 602,-187 602,-187 596,-187 590,-181 590,-175 590,-175 590,-116 590,-116 590,-110 596,-104 602,-104 602,-104 763,-104 763,-104 769,-104 775,-110 775,-116 775,-116 775,-175 775,-175 775,-181 769,-187 763,-187"/>
<text text-anchor="start" x="652" y="-171.8" font-family="Helvetica,sans-Serif" font-size="14.00">node #9</text>
<text text-anchor="start" x="598" y="-156.8" font-family="Helvetica,sans-Serif" font-size="14.00">petal_width_cm ≤ 1.223</text>
<text text-anchor="start" x="638.5" y="-141.8" font-family="Helvetica,sans-Serif" font-size="14.00">gini = 0.273</text>
<text text-anchor="start" x="634" y="-126.8" font-family="Helvetica,sans-Serif" font-size="14.00">samples = 92</text>
<text text-anchor="start" x="625" y="-111.8" font-family="Helvetica,sans-Serif" font-size="14.00">value = [77, 15]</text>
</g>
<!-- 8&#45;&gt;9 -->
<g id="edge9" class="edge">
<title>8&#45;&gt;9</title>
<path fill="none" stroke="black" d="M682.5,-222.91C682.5,-214.65 682.5,-205.86 682.5,-197.3"/>
<polygon fill="black" stroke="black" points="686,-197.02 682.5,-187.02 679,-197.02 686,-197.02"/>
</g>
<!-- 12 -->
<g id="node13" class="node">
<title>12</title>
<path fill="#54aae8" stroke="black" d="M1014,-187C1014,-187 847,-187 847,-187 841,-187 835,-181 835,-175 835,-175 835,-116 835,-116 835,-110 841,-104 847,-104 847,-104 1014,-104 1014,-104 1020,-104 1026,-110 1026,-116 1026,-116 1026,-175 1026,-175 1026,-181 1020,-187 1014,-187"/>
<text text-anchor="start" x="895.5" y="-171.8" font-family="Helvetica,sans-Serif" font-size="14.00">node #12</text>
<text text-anchor="start" x="843" y="-156.8" font-family="Helvetica,sans-Serif" font-size="14.00">petal_width_cm ≤ &#45;0.406</text>
<text text-anchor="start" x="886.5" y="-141.8" font-family="Helvetica,sans-Serif" font-size="14.00">gini = 0.209</text>
<text text-anchor="start" x="877.5" y="-126.8" font-family="Helvetica,sans-Serif" font-size="14.00">samples = 980</text>
<text text-anchor="start" x="864" y="-111.8" font-family="Helvetica,sans-Serif" font-size="14.00">value = [116, 864]</text>
</g>
<!-- 8&#45;&gt;12 -->
<g id="edge12" class="edge">
<title>8&#45;&gt;12</title>
<path fill="none" stroke="black" d="M768.54,-222.91C790.09,-212.74 813.32,-201.78 835.28,-191.42"/>
<polygon fill="black" stroke="black" points="837.06,-194.45 844.61,-187.02 834.07,-188.12 837.06,-194.45"/>
</g>
<!-- 10 -->
<g id="node11" class="node">
<title>10</title>
<path fill="#e58139" stroke="black" d="M689.5,-68C689.5,-68 591.5,-68 591.5,-68 585.5,-68 579.5,-62 579.5,-56 579.5,-56 579.5,-12 579.5,-12 579.5,-6 585.5,0 591.5,0 591.5,0 689.5,0 689.5,0 695.5,0 701.5,-6 701.5,-12 701.5,-12 701.5,-56 701.5,-56 701.5,-62 695.5,-68 689.5,-68"/>
<text text-anchor="start" x="605.5" y="-52.8" font-family="Helvetica,sans-Serif" font-size="14.00">node #10</text>
<text text-anchor="start" x="605.5" y="-37.8" font-family="Helvetica,sans-Serif" font-size="14.00">gini = 0.0</text>
<text text-anchor="start" x="592" y="-22.8" font-family="Helvetica,sans-Serif" font-size="14.00">samples = 55</text>
<text text-anchor="start" x="587.5" y="-7.8" font-family="Helvetica,sans-Serif" font-size="14.00">value = [55, 0]</text>
</g>
<!-- 9&#45;&gt;10 -->
<g id="edge10" class="edge">
<title>9&#45;&gt;10</title>
<path fill="none" stroke="black" d="M666.86,-103.73C663.61,-95.24 660.17,-86.28 656.89,-77.73"/>
<polygon fill="black" stroke="black" points="660.12,-76.38 653.27,-68.3 653.59,-78.89 660.12,-76.38"/>
</g>
<!-- 11 -->
<g id="node12" class="node">
<title>11</title>
<path fill="#f7d7c0" stroke="black" d="M839,-68C839,-68 732,-68 732,-68 726,-68 720,-62 720,-56 720,-56 720,-12 720,-12 720,-6 726,0 732,0 732,0 839,0 839,0 845,0 851,-6 851,-12 851,-12 851,-56 851,-56 851,-62 845,-68 839,-68"/>
<text text-anchor="start" x="750.5" y="-52.8" font-family="Helvetica,sans-Serif" font-size="14.00">node #11</text>
<text text-anchor="start" x="741.5" y="-37.8" font-family="Helvetica,sans-Serif" font-size="14.00">gini = 0.482</text>
<text text-anchor="start" x="737" y="-22.8" font-family="Helvetica,sans-Serif" font-size="14.00">samples = 37</text>
<text text-anchor="start" x="728" y="-7.8" font-family="Helvetica,sans-Serif" font-size="14.00">value = [22, 15]</text>
</g>
<!-- 9&#45;&gt;11 -->
<g id="edge11" class="edge">
<title>9&#45;&gt;11</title>
<path fill="none" stroke="black" d="M720.85,-103.73C729.43,-94.61 738.53,-84.93 747.11,-75.81"/>
<polygon fill="black" stroke="black" points="749.87,-77.98 754.18,-68.3 744.78,-73.19 749.87,-77.98"/>
</g>
<!-- 13 -->
<g id="node14" class="node">
<title>13</title>
<path fill="#eb9d64" stroke="black" d="M979.5,-68C979.5,-68 881.5,-68 881.5,-68 875.5,-68 869.5,-62 869.5,-56 869.5,-56 869.5,-12 869.5,-12 869.5,-6 875.5,0 881.5,0 881.5,0 979.5,0 979.5,0 985.5,0 991.5,-6 991.5,-12 991.5,-12 991.5,-56 991.5,-56 991.5,-62 985.5,-68 979.5,-68"/>
<text text-anchor="start" x="895.5" y="-52.8" font-family="Helvetica,sans-Serif" font-size="14.00">node #13</text>
<text text-anchor="start" x="886.5" y="-37.8" font-family="Helvetica,sans-Serif" font-size="14.00">gini = 0.295</text>
<text text-anchor="start" x="882" y="-22.8" font-family="Helvetica,sans-Serif" font-size="14.00">samples = 39</text>
<text text-anchor="start" x="877.5" y="-7.8" font-family="Helvetica,sans-Serif" font-size="14.00">value = [32, 7]</text>
</g>
<!-- 12&#45;&gt;13 -->
<g id="edge13" class="edge">
<title>12&#45;&gt;13</title>
<path fill="none" stroke="black" d="M930.5,-103.73C930.5,-95.52 930.5,-86.86 930.5,-78.56"/>
<polygon fill="black" stroke="black" points="934,-78.3 930.5,-68.3 927,-78.3 934,-78.3"/>
</g>
<!-- 14 -->
<g id="node15" class="node">
<title>14</title>
<path fill="#4ca7e8" stroke="black" d="M1137.5,-68C1137.5,-68 1021.5,-68 1021.5,-68 1015.5,-68 1009.5,-62 1009.5,-56 1009.5,-56 1009.5,-12 1009.5,-12 1009.5,-6 1015.5,0 1021.5,0 1021.5,0 1137.5,0 1137.5,0 1143.5,0 1149.5,-6 1149.5,-12 1149.5,-12 1149.5,-56 1149.5,-56 1149.5,-62 1143.5,-68 1137.5,-68"/>
<text text-anchor="start" x="1044.5" y="-52.8" font-family="Helvetica,sans-Serif" font-size="14.00">node #14</text>
<text text-anchor="start" x="1035.5" y="-37.8" font-family="Helvetica,sans-Serif" font-size="14.00">gini = 0.163</text>
<text text-anchor="start" x="1026.5" y="-22.8" font-family="Helvetica,sans-Serif" font-size="14.00">samples = 941</text>
<text text-anchor="start" x="1017.5" y="-7.8" font-family="Helvetica,sans-Serif" font-size="14.00">value = [84, 857]</text>
</g>
<!-- 12&#45;&gt;14 -->
<g id="edge14" class="edge">
<title>12&#45;&gt;14</title>
<path fill="none" stroke="black" d="M985.98,-103.73C999.01,-94.15 1012.88,-83.96 1025.83,-74.44"/>
<polygon fill="black" stroke="black" points="1028.2,-77.04 1034.19,-68.3 1024.06,-71.4 1028.2,-77.04"/>
</g>
</g>
</svg>
